<?xml version="1.0" encoding="utf-8"?>
<!-- Generator: Adobe Illustrator 21.0.0, SVG Export Plug-In . SVG Version: 6.00 Build 0)  -->
<svg version="1.1" id="Layer_1" xmlns="http://www.w3.org/2000/svg" xmlns:xlink="http://www.w3.org/1999/xlink" x="0px" y="0px"
	 viewBox="0 0 512 512" style="enable-background:new 0 0 512 512;" xml:space="preserve" fill="#C70039">
<g>
	<path d="M478.2,388l-64.5-37.2c-4.5-2.6-10.1-1-12.7,3.4l0,0l-11.6,20.2c-2.6,4.4-1.1,10.2,3.4,12.7l64.5,37.2
		c4.5,2.6,10.1,1,12.7-3.4l0,0l11.6-20.2C484.1,396.3,482.5,390.5,478.2,388z M400.9,157.8c2.5,4.5,8.2,6,12.7,3.4l0,0l64.5-37.2
		c4.4-2.6,6-8.3,3.4-12.7l-11.6-20.1c-2.5-4.5-8.2-6-12.7-3.4l0,0L392.8,125c-4.4,2.6-6,8.3-3.4,12.7L400.9,157.8z M502.6,235h-74.8
		c-5.1,0-9.4,4.2-9.4,9.4v23.4c0,5.1,4.2,9.4,9.4,9.4h74.8c5.1,0,9.4-4.2,9.4-9.4v-23.4C512,239.2,507.8,235,502.6,235z M322.6,24
		c-3.4,0-7,0.9-10.2,3.1L105.2,162.5H9.4c-5.1,0-9.4,4.2-9.4,9.4v168.3c0,5.1,4.2,9.4,9.4,9.4h95.9l207.2,135.4
		c3.2,2.1,6.8,3.1,10.2,3.1c9.8,0,18.8-7.8,18.8-18.8V42.7C341.3,31.7,332.3,24,322.6,24z"/>
</g>
</svg>
